# ProBuilder 4.5.2
# https://unity3d.com/unity/features/worldbuilding/probuilder
# 10.05.2022 17:08:19

mtllib ./Plane_(2).mtl
o Plane (2)

g Plane (2)
v 0 0 0
v 0 0.25 0
v 0 0 0.25
v 0 0.25 0.25
v 0 0.5 0
v 0 0.5 0.25
v 0 0.75 0
v 0 0.75 0.25
v 0 1 0
v 0 1 0.25
v 0 0 0.5
v 0 0.25 0.5
v 0 0.5 0.5
v 0 0.75 0.5
v 0 1 0.5
v 0 0 0.75
v 0 0.25 0.75
v 0 0.5 0.75
v 0 0.75 0.75
v 0 1 0.75
v 0 0 1
v 0 0.25 1
v 0 0.5 1
v 0 0.75 1
v 0 1 1

vt 0 0
vt 0 0.25
vt 0.25 0
vt 0.25 0.25
vt 0 0.5
vt 0.25 0.5
vt 0 0.75
vt 0.25 0.75
vt 0 1
vt 0.25 1
vt 0.5 0
vt 0.5 0.25
vt 0.5 0.5
vt 0.5 0.75
vt 0.5 1
vt 0.75 0
vt 0.75 0.25
vt 0.75 0.5
vt 0.75 0.75
vt 0.75 1
vt 1 0
vt 1 0.25
vt 1 0.5
vt 1 0.75
vt 1 1

vn -1 0 0

usemtl M_TestGrass
f 3/3/1 4/4/1 2/2/1 1/1/1
f 4/4/1 6/6/1 5/5/1 2/2/1
f 6/6/1 8/8/1 7/7/1 5/5/1
f 8/8/1 10/10/1 9/9/1 7/7/1
f 11/11/1 12/12/1 4/4/1 3/3/1
f 12/12/1 13/13/1 6/6/1 4/4/1
f 13/13/1 14/14/1 8/8/1 6/6/1
f 14/14/1 15/15/1 10/10/1 8/8/1
f 16/16/1 17/17/1 12/12/1 11/11/1
f 17/17/1 18/18/1 13/13/1 12/12/1
f 18/18/1 19/19/1 14/14/1 13/13/1
f 19/19/1 20/20/1 15/15/1 14/14/1
f 21/21/1 22/22/1 17/17/1 16/16/1
f 22/22/1 23/23/1 18/18/1 17/17/1
f 23/23/1 24/24/1 19/19/1 18/18/1
f 24/24/1 25/25/1 20/20/1 19/19/1

